<!DOCTYPE svg PUBLIC "-//W3C//DTD SVG 1.1//EN" "http://www.w3.org/Graphics/SVG/1.1/DTD/svg11.dtd">
<!-- Uploaded to: SVG Repo, www.svgrepo.com, Transformed by: SVG Repo Mixer Tools -->
<svg width="800px" height="800px" viewBox="-5.04 -5.04 34.08 34.08" fill="none" xmlns="http://www.w3.org/2000/svg" stroke="#ffff">
<g id="SVGRepo_bgCarrier" stroke-width="0">
<rect x="-5.04" y="-5.04" width="34.08" height="34.08" rx="0" fill="#FC747B" strokewidth="0"/>
</g>
<g id="SVGRepo_tracerCarrier" stroke-linecap="round" stroke-linejoin="round"/>
<g id="SVGRepo_iconCarrier"> <circle cx="12" cy="12" r="8" stroke="#" stroke-width="2"/> <path d="M18.572 6.42127C17.8483 7.20326 16.8869 7.84488 15.7672 8.29313C14.6475 8.74138 13.4017 8.98339 12.1326 8.99918C10.8636 9.01496 9.60778 8.80406 8.4689 8.3839C7.33002 7.96374 6.34077 7.34638 5.58288 6.58282" stroke="#" stroke-width="2"/> <path d="M18.572 17.5787C17.8483 16.7967 16.8869 16.1551 15.7672 15.7069C14.6475 15.2586 13.4017 15.0166 12.1326 15.0008C10.8636 14.985 9.60778 15.1959 8.4689 15.6161C7.33002 16.0363 6.34077 16.6536 5.58288 17.4172" stroke="#" stroke-width="2"/> <path d="M12 4V20" stroke="#" stroke-width="2"/> <path d="M20 12H4" stroke="#" stroke-width="2"/> </g>
</svg>